<?xml version="1.0" encoding="utf-8"?>
<!-- Generator: Adobe Illustrator 21.0.0, SVG Export Plug-In . SVG Version: 6.00 Build 0)  -->
<svg version="1.1" xmlns="http://www.w3.org/2000/svg" xmlns:xlink="http://www.w3.org/1999/xlink" x="0px" y="0px"
	 viewBox="0 0 467 387.9" style="enable-background:new 0 0 467 387.9;" xml:space="preserve">
<style type="text/css">
	.st0{fill:#0072AD;}
	.st1{fill:#CEDAD8;}
	.st2{fill:#94C8E2;}
	.st3{fill:#B8D3DB;}
	.st4{fill:none;}
	.st5{fill:#036DAB;}
	.st6{fill:#E89427;}
	.st7{fill:#0B71AC;}
	.st8{fill:#0A71AC;}
	.st9{fill:#1074AE;}
	.st10{fill:#0C71AD;}
	.st11{fill:#1B79B1;}
	.st12{fill:#1B7AB1;}
	.st13{fill:#0C72AD;}
</style>
<g id="Wave">
	<g id="XMLID_1_">
		<g>
			<path class="st0" d="M470.8,30.5c5.9,14,8.7,27.7,0,41.9c-5.1,8.4-7.4,17.6-3.8,27.6c2.1,6,3.8,12.8,0.6,19
				c-1.8,3.4-4.5,9.4-8.6,1c-1.9-3.9-5.3-1.6-7.9-1c-34,7.6-69,8.9-103.6,12.5c-10.4,1.1-20.5-1.1-30.7-2.6
				c-12.4-1.8-24.8-2.9-37.3,0.3c-11.2,2.9-20.7,0.3-29.6-6.7c-20.4-16-44.7-15-68.2-9.3c-13.2,3.1-24.8,5.1-37.7,0.5
				c-13.4-4.9-28.4-2.5-42.2-5.5c-33.6-7.3-66.3-0.7-99.2,3.6c-10.4,1.3-17.1-0.7-22.1-8.7c-5.3-8.3-3.2-15.8,3.4-22.2
				c5.8-5.8,8.7-8.5,0.6-16.5c-11-10.7,8.8-40.9,27.4-44.1c6-1.1,12.4-1.5,18.5-2.8C33.7,16.7,55.3,7.8,63,5.9
				c1.9-0.3,3.8-0.4,5.7-0.5c2.6-0.2,5.1-0.9,7.6-1.5C79,3.3,81.8,3.1,84.6,3c5-0.3,10.1,0,15.1-0.3c19.9,0.9,39.5,3.6,58.7,8
				c3.2,0.8,6.4,1.9,9.6,2.9c5,1.7,10.2,3.5,14.8,6.3c1,0.4,2,1,2.9,1.5c2,1,4,1.9,6.3,2.6c4.4,1.5,8.2-0.8,12.2-1.7
				c4.4,0.3,7.3,3,10.1,5.7c12.2,4.7,25.1,8.3,37.6,3.3c12.1-4.7,22.6-4.7,34.5,0.4c18.8,8.1,39.2,8,59.1,4.3
				c13.4-2.5,26.3-4.1,39.5,0.3c8.2,2.7,16.6,2,24.9-0.2c15.9-4.1,32.1-7.4,47.9-11.7C465.1,22.4,468.2,24.4,470.8,30.5z"/>
		</g>
	</g>
	<rect x="-27" y="40.5" class="st0" width="511" height="347.3"/>
</g>
<g id="Sun">
</g>
</svg>
